<svg version="1.1" xmlns="http://www.w3.org/2000/svg" xmlns:xlink="http://www.w3.org/1999/xlink" width="54px" height="33px" viewBox="0,0,256,156.4375"><defs><clipPath id="clip-1"><path d="M0,0h54v32.4h-54z" id="prefix__clip0" fill="none" fill-rule="nonzero"></path></clipPath></defs><g fill="none" fill-rule="none" stroke="none" stroke-width="1" stroke-linecap="butt" stroke-linejoin="miter" stroke-miterlimit="10" stroke-dasharray="" stroke-dashoffset="0" font-family="none" font-weight="none" font-size="none" text-anchor="none" style="mix-blend-mode: normal"><g transform="translate(0,1.41875) scale(4.74074,4.74074)"><g clip-path="url(#clip-1)"><path d="M27,0c-7.2,0 -11.7,3.6 -13.5,10.8c2.7,-3.6 5.85,-4.95 9.45,-4.05c2.054,0.513 3.522,2.004 5.147,3.653c2.647,2.687 5.711,5.797 12.403,5.797c7.2,0 11.7,-3.6 13.5,-10.8c-2.7,3.6 -5.85,4.95 -9.45,4.05c-2.054,-0.513 -3.522,-2.004 -5.147,-3.653c-2.647,-2.687 -5.711,-5.797 -12.403,-5.797zM13.5,16.2c-7.2,0 -11.7,3.6 -13.5,10.8c2.7,-3.6 5.85,-4.95 9.45,-4.05c2.054,0.514 3.522,2.004 5.147,3.653c2.647,2.687 5.711,5.797 12.403,5.797c7.2,0 11.7,-3.6 13.5,-10.8c-2.7,3.6 -5.85,4.95 -9.45,4.05c-2.054,-0.513 -3.522,-2.004 -5.147,-3.653c-2.647,-2.687 -5.711,-5.797 -12.403,-5.797z" fill="#e8e8e4" fill-rule="evenodd"></path></g></g></g></svg>